<?xml version="1.0" encoding="UTF-8"?>
<svg xmlns="http://www.w3.org/2000/svg" xmlns:xlink="http://www.w3.org/1999/xlink" width="78.688" height="64.515" viewBox="0 0 78.688 64.515">
<defs>
<clipPath id="clip-0">
<path clip-rule="nonzero" d="M 0.140625 56 L 8 56 L 8 64 L 0.140625 64 Z M 0.140625 56 "/>
</clipPath>
<clipPath id="clip-1">
<path clip-rule="nonzero" d="M 0.140625 50 L 14 50 L 14 64.035156 L 0.140625 64.035156 Z M 0.140625 50 "/>
</clipPath>
<clipPath id="clip-2">
<path clip-rule="nonzero" d="M 0.140625 0 L 8 0 L 8 8 L 0.140625 8 Z M 0.140625 0 "/>
</clipPath>
<clipPath id="clip-3">
<path clip-rule="nonzero" d="M 0.140625 0 L 14 0 L 14 14 L 0.140625 14 Z M 0.140625 0 "/>
</clipPath>
<clipPath id="clip-4">
<path clip-rule="nonzero" d="M 29 50 L 49 50 L 49 64.035156 L 29 64.035156 Z M 29 50 "/>
</clipPath>
<clipPath id="clip-5">
<path clip-rule="nonzero" d="M 70 56 L 78.238281 56 L 78.238281 64 L 70 64 Z M 70 56 "/>
</clipPath>
<clipPath id="clip-6">
<path clip-rule="nonzero" d="M 65 50 L 78.238281 50 L 78.238281 64.035156 L 65 64.035156 Z M 65 50 "/>
</clipPath>
<clipPath id="clip-7">
<path clip-rule="nonzero" d="M 0.140625 0 L 78.238281 0 L 78.238281 64.035156 L 0.140625 64.035156 Z M 0.140625 0 "/>
</clipPath>
<clipPath id="clip-8">
<path clip-rule="nonzero" d="M 0.140625 0 L 63 0 L 63 64.035156 L 0.140625 64.035156 Z M 0.140625 0 "/>
</clipPath>
</defs>
<g clip-path="url(#clip-0)">
<path fill-rule="nonzero" fill="rgb(100%, 94.898987%, 0%)" fill-opacity="1" d="M 7.703125 60.152344 C 7.703125 58.117188 6.054688 56.46875 4.019531 56.46875 C 1.984375 56.46875 0.335938 58.117188 0.335938 60.152344 C 0.335938 62.1875 1.984375 63.835938 4.019531 63.835938 C 6.054688 63.835938 7.703125 62.1875 7.703125 60.152344 Z M 7.703125 60.152344 "/>
</g>
<g clip-path="url(#clip-1)">
<path fill="none" stroke-width="0.3985" stroke-linecap="butt" stroke-linejoin="miter" stroke="rgb(0%, 0%, 0%)" stroke-opacity="1" stroke-miterlimit="10" d="M 3.710261 -0.000546908 C 3.710261 2.049909 2.049431 3.710739 -0.00102509 3.710739 C -2.051481 3.710739 -3.712311 2.049909 -3.712311 -0.000546908 C -3.712311 -2.051003 -2.051481 -3.711833 -0.00102509 -3.711833 C 2.049431 -3.711833 3.710261 -2.051003 3.710261 -0.000546908 Z M 3.710261 -0.000546908 " transform="matrix(0.992538, 0, 0, -0.992538, 4.020549, 60.151801)"/>
</g>
<g clip-path="url(#clip-2)">
<path fill-rule="nonzero" fill="rgb(100%, 94.898987%, 0%)" fill-opacity="1" d="M 7.703125 3.882812 C 7.703125 1.847656 6.054688 0.195312 4.019531 0.195312 C 1.984375 0.195312 0.335938 1.847656 0.335938 3.882812 C 0.335938 5.914062 1.984375 7.566406 4.019531 7.566406 C 6.054688 7.566406 7.703125 5.914062 7.703125 3.882812 Z M 7.703125 3.882812 "/>
</g>
<g clip-path="url(#clip-3)">
<path fill="none" stroke-width="0.3985" stroke-linecap="butt" stroke-linejoin="miter" stroke="rgb(0%, 0%, 0%)" stroke-opacity="1" stroke-miterlimit="10" d="M 3.710261 56.691998 C 3.710261 58.742454 2.049431 60.407219 -0.00102509 60.407219 C -2.051481 60.407219 -3.712311 58.742454 -3.712311 56.691998 C -3.712311 54.645478 -2.051481 52.980712 -0.00102509 52.980712 C 2.049431 52.980712 3.710261 54.645478 3.710261 56.691998 Z M 3.710261 56.691998 " transform="matrix(0.992538, 0, 0, -0.992538, 4.020549, 60.151801)"/>
</g>
<path fill-rule="nonzero" fill="rgb(100%, 94.898987%, 0%)" fill-opacity="1" d="M 42.875 60.152344 C 42.875 58.117188 41.222656 56.46875 39.191406 56.46875 C 37.15625 56.46875 35.503906 58.117188 35.503906 60.152344 C 35.503906 62.1875 37.15625 63.835938 39.191406 63.835938 C 41.222656 63.835938 42.875 62.1875 42.875 60.152344 Z M 42.875 60.152344 "/>
<g clip-path="url(#clip-4)">
<path fill="none" stroke-width="0.3985" stroke-linecap="butt" stroke-linejoin="miter" stroke="rgb(0%, 0%, 0%)" stroke-opacity="1" stroke-miterlimit="10" d="M 39.146545 -0.000546908 C 39.146545 2.049909 37.481779 3.710739 35.435259 3.710739 C 33.384803 3.710739 31.720038 2.049909 31.720038 -0.000546908 C 31.720038 -2.051003 33.384803 -3.711833 35.435259 -3.711833 C 37.481779 -3.711833 39.146545 -2.051003 39.146545 -0.000546908 Z M 39.146545 -0.000546908 " transform="matrix(0.992538, 0, 0, -0.992538, 4.020549, 60.151801)"/>
</g>
<g clip-path="url(#clip-5)">
<path fill-rule="nonzero" fill="rgb(100%, 94.898987%, 0%)" fill-opacity="1" d="M 78.042969 60.152344 C 78.042969 58.117188 76.394531 56.46875 74.359375 56.46875 C 72.324219 56.46875 70.675781 58.117188 70.675781 60.152344 C 70.675781 62.1875 72.324219 63.835938 74.359375 63.835938 C 76.394531 63.835938 78.042969 62.1875 78.042969 60.152344 Z M 78.042969 60.152344 "/>
</g>
<g clip-path="url(#clip-6)">
<path fill="none" stroke-width="0.3985" stroke-linecap="butt" stroke-linejoin="miter" stroke="rgb(0%, 0%, 0%)" stroke-opacity="1" stroke-miterlimit="10" d="M 74.578893 -0.000546908 C 74.578893 2.049909 72.918063 3.710739 70.867608 3.710739 C 68.817152 3.710739 67.156322 2.049909 67.156322 -0.000546908 C 67.156322 -2.051003 68.817152 -3.711833 70.867608 -3.711833 C 72.918063 -3.711833 74.578893 -2.051003 74.578893 -0.000546908 Z M 74.578893 -0.000546908 " transform="matrix(0.992538, 0, 0, -0.992538, 4.020549, 60.151801)"/>
</g>
<path fill-rule="nonzero" fill="rgb(100%, 94.898987%, 0%)" fill-opacity="1" stroke-width="0.3985" stroke-linecap="butt" stroke-linejoin="miter" stroke="rgb(0%, 0%, 0%)" stroke-opacity="1" stroke-miterlimit="10" d="M 21.428403 28.347693 C 21.428403 30.398149 19.767573 32.058979 17.717117 32.058979 C 15.666661 32.058979 14.005831 30.398149 14.005831 28.347693 C 14.005831 26.297238 15.666661 24.636408 17.717117 24.636408 C 19.767573 24.636408 21.428403 26.297238 21.428403 28.347693 Z M 21.428403 28.347693 " transform="matrix(0.992538, 0, 0, -0.992538, 4.020549, 60.151801)"/>
<path fill-rule="nonzero" fill="rgb(100%, 94.898987%, 0%)" fill-opacity="1" stroke-width="0.3985" stroke-linecap="butt" stroke-linejoin="miter" stroke="rgb(0%, 0%, 0%)" stroke-opacity="1" stroke-miterlimit="10" d="M 46.230653 56.691998 C 46.230653 58.742454 44.569823 60.407219 42.519367 60.407219 C 40.468912 60.407219 38.808082 58.742454 38.808082 56.691998 C 38.808082 54.645478 40.468912 52.980712 42.519367 52.980712 C 44.569823 52.980712 46.230653 54.645478 46.230653 56.691998 Z M 46.230653 56.691998 " transform="matrix(0.992538, 0, 0, -0.992538, 4.020549, 60.151801)"/>
<path fill-rule="nonzero" fill="rgb(100%, 94.898987%, 0%)" fill-opacity="1" stroke-width="0.3985" stroke-linecap="butt" stroke-linejoin="miter" stroke="rgb(0%, 0%, 0%)" stroke-opacity="1" stroke-miterlimit="10" d="M 60.406741 28.347693 C 60.406741 30.398149 58.741976 32.058979 56.695455 32.058979 C 54.645 32.058979 52.980234 30.398149 52.980234 28.347693 C 52.980234 26.297238 54.645 24.636408 56.695455 24.636408 C 58.741976 24.636408 60.406741 26.297238 60.406741 28.347693 Z M 60.406741 28.347693 " transform="matrix(0.992538, 0, 0, -0.992538, 4.020549, 60.151801)"/>
<g clip-path="url(#clip-7)">
<path fill="none" stroke-width="1.19553" stroke-linecap="butt" stroke-linejoin="miter" stroke="rgb(0%, 67.83905%, 93.728638%)" stroke-opacity="1" stroke-miterlimit="10" d="M -0.00102509 3.911455 L -0.00102509 52.783932 M 2.073044 53.378209 L 15.643048 31.665417 M 20.29101 31.291534 L 39.945475 53.752093 M 44.270716 53.197171 L 54.944106 31.846456 M 58.442869 24.848931 L 69.116259 3.498215 " transform="matrix(0.992538, 0, 0, -0.992538, 4.020549, 60.151801)"/>
<path fill="none" stroke-width="1.19553" stroke-linecap="butt" stroke-linejoin="miter" stroke="rgb(100%, 50%, 0%)" stroke-opacity="1" stroke-miterlimit="10" d="M 3.910977 56.691998 L 38.607365 56.691998 M 38.607365 56.691998 L 3.910977 56.691998 M 2.073044 53.378209 L 15.643048 31.665417 M 21.629119 28.347693 L 52.783453 28.347693 M 52.783453 28.347693 L 21.629119 28.347693 M 19.791187 25.029969 L 33.36119 3.317177 M 39.343326 -0.000546908 L 66.955606 -0.000546908 " transform="matrix(0.992538, 0, 0, -0.992538, 4.020549, 60.151801)"/>
</g>
<g clip-path="url(#clip-8)">
<path fill="none" stroke-width="1.19553" stroke-linecap="butt" stroke-linejoin="miter" stroke="rgb(0%, 100%, 0%)" stroke-opacity="1" stroke-miterlimit="10" d="M 2.073044 53.378209 L 15.643048 31.665417 M 19.791187 25.029969 L 33.36119 3.317177 M 35.91934 3.87997 L 42.035287 52.811481 " transform="matrix(0.992538, 0, 0, -0.992538, 4.020549, 60.151801)"/>
</g>
<path fill="none" stroke-width="1.19553" stroke-linecap="butt" stroke-linejoin="miter" stroke="rgb(50%, 0%, 50%)" stroke-opacity="1" stroke-miterlimit="10" d="M -0.00102509 52.783932 L -0.00102509 3.911455 M 3.910977 -0.000546908 L 31.523257 -0.000546908 " transform="matrix(0.992538, 0, 0, -0.992538, 4.020549, 60.151801)"/>
</svg>
